<svg width="369" height="85" viewBox="0 0 369 85" fill="none" xmlns="http://www.w3.org/2000/svg">
<path d="M19.0926 84.4235C15.8694 84.4235 12.691 84.0045 9.54624 83.1553C6.40145 82.306 3.21194 80.8906 0 78.9091V61.1769H3.14479C3.70436 67.2688 5.5621 71.934 8.70689 75.1837C11.8517 78.4448 15.9813 80.064 21.0846 80.064C25.6955 80.064 29.411 78.7845 32.2089 76.2481C35.0067 73.7004 36.4056 70.4053 36.4056 66.3742C36.4056 63.6114 35.5999 61.1882 33.9883 59.1047C32.3768 57.0212 29.6124 54.8812 25.6954 52.6844L14.0452 46.2075C9.22171 43.5239 5.77478 40.8177 3.71556 38.0888C1.65634 35.3599 0.615514 32.1667 0.615514 28.4867C0.615514 24.5235 1.70105 21.002 3.87219 17.9221C6.04332 14.8422 8.9979 12.419 12.7358 10.6526C16.4738 8.88614 20.7601 8.00293 25.5836 8.00293C28.4486 8.00293 31.2464 8.31998 33.9771 8.95408C36.7078 9.58818 39.4721 10.6186 42.27 12.034V25.4067H39.1251C38.4201 21.1605 36.7414 17.9221 34.089 15.6914C31.4255 13.4607 27.9002 12.3511 23.4908 12.3511C19.0814 12.3511 15.4665 13.4494 12.8477 15.6461C10.2289 17.8428 8.90832 20.6736 8.90832 24.1385C8.90832 26.7542 9.71414 29.1321 11.3257 31.2495C12.9373 33.367 15.3098 35.2806 18.4546 36.9791L30.6197 43.6711C34.3912 45.7206 37.3682 47.7249 39.5393 49.6725C41.7104 51.6201 43.2324 53.6129 44.1053 55.6738C44.9783 57.7233 45.4148 59.9879 45.4148 62.4677C45.4148 66.7819 44.2956 70.5865 42.0574 73.8815C39.8191 77.1766 36.719 79.7583 32.7684 81.6266C28.8179 83.5063 24.2518 84.4348 19.0814 84.4348L19.0926 84.4235Z" fill="black"/>
<path d="M152.716 83.3668C148.534 83.3668 141.961 83.4912 137.927 83.4912C133.53 83.4912 128.679 83.3102 126.062 81.0477C123.444 78.7852 122.129 75.1086 122.129 70.0179V34.5982H115.432V31.4193C120.951 28.3762 125.348 24.349 128.6 19.3262H131.784V67.1558C131.784 69.9161 132.249 71.9976 133.167 73.4117C134.085 74.8258 134.776 75.9683 136.635 76.9865C141.361 79.5771 144.681 79.5544 146.664 79.5544C151.084 79.5544 148.16 81.0251 158.008 78.9209M127.127 34.5869V28.2292H146.313V29.8243L143.548 34.5982H127.115L127.127 34.5869Z" fill="black"/>
<path d="M325.45 80.2915V83.4912H298.84V80.2915L302.032 79.7563C304.155 79.4033 305.586 78.8111 306.291 77.9913C306.995 77.1714 307.358 75.657 307.358 73.4479V44.6273C307.358 41.9969 306.893 39.8676 305.973 38.2278C305.053 36.5881 303.678 35.3583 301.873 34.5385C300.055 33.7186 297.739 33.3087 294.899 33.3087C292.06 33.3087 289.641 33.7983 287.449 34.7548C285.246 35.7113 283.019 37.2258 280.737 39.2982V73.4479C280.737 75.657 281.089 77.1714 281.804 77.9913C282.508 78.8111 283.939 79.3919 286.063 79.7563L289.266 80.2915V83.4912H216.375V80.2915L219.566 79.7563C221.701 79.4033 223.121 78.8111 223.825 77.9913C224.529 77.1714 224.881 75.657 224.881 73.4479V43.2381C224.881 40.3914 224.473 38.2506 223.666 36.8272C222.848 35.4039 221.724 34.4587 220.304 33.9919C218.885 33.5364 217.261 33.2973 215.41 33.2973C212.786 33.2973 210.401 33.7869 208.277 34.7434C206.153 35.6999 203.87 37.2144 201.463 39.2868V73.4365C201.463 75.6456 201.815 77.16 202.53 77.9799C203.234 78.7998 204.665 79.3805 206.789 79.7449L209.981 80.2801V83.4798H183.371V80.2801L186.562 79.7449C188.697 79.3919 190.117 78.7998 190.821 77.9799C191.525 77.16 191.877 75.6456 191.877 73.4365V43.2267C191.877 40.38 191.468 38.2392 190.651 36.8159C189.833 35.3925 188.72 34.4474 187.3 33.9805C185.881 33.525 184.256 33.2859 182.405 33.2859C179.782 33.2859 177.363 33.7755 175.159 34.732C172.956 35.6885 170.73 37.203 168.447 39.2755V73.4251C168.447 75.6342 168.799 77.1487 169.515 77.9685C170.219 78.7884 171.65 79.3691 173.774 79.7335L176.976 80.2687V83.4684H150.355L146.652 79.6196C149.367 79.7107 151.865 79.6196 153.558 79.3577C155.693 79.0047 157.101 78.5379 157.817 77.718C158.521 76.8981 158.873 75.3837 158.873 73.1746V41.6098C158.873 39.3324 158.373 37.7154 157.385 36.7475C156.386 35.791 154.125 35.0964 150.571 34.6637V31.9992L166.653 27.2963H168.14V35.0964H168.776C172.184 32.1016 175.307 29.995 178.146 28.7425C180.986 27.5013 184.041 26.875 187.3 26.875C190.56 26.875 193.217 27.5013 195.659 28.7425C198.112 29.9837 199.793 32.2155 200.724 35.4153H201.258C204.949 32.2838 208.232 30.0747 211.105 28.7994C213.978 27.5127 217.045 26.875 220.316 26.875C222.939 26.875 225.324 27.2849 227.448 28.1048C229.583 28.9247 231.287 30.2797 232.559 32.1586C233.842 34.0374 234.478 36.6564 234.478 40.0042V73.4137C234.478 75.6228 234.83 77.1373 235.546 77.9571C236.25 78.777 237.681 79.3577 239.805 79.7221C240.736 79.8815 241.679 79.8815 242.61 79.7221C244.745 79.3691 246.165 78.777 246.869 77.9571C247.573 77.1373 247.937 75.6228 247.937 73.4137V41.6098C247.937 39.3324 247.437 37.7154 246.449 36.7475C245.45 35.791 243.178 35.0964 239.635 34.6637V31.9992L256.035 27.2963H257.522V73.4137C257.522 75.6228 257.874 77.1373 258.59 77.9571C259.294 78.777 260.714 79.3577 262.849 79.7221H262.928C263.871 79.8929 264.836 79.8929 265.779 79.7335H265.859C267.982 79.3577 269.402 78.777 270.118 77.9571C270.822 77.1373 271.174 75.6228 271.174 73.4137V41.6098C271.174 39.3324 270.674 37.7154 269.686 36.7475C268.687 35.791 266.426 35.0964 262.872 34.6637V31.9992L278.954 27.2963H280.441V35.0964H281.089C284.496 32.1016 287.653 29.995 290.561 28.7425C293.468 27.4899 296.875 26.875 300.782 26.875C305.825 26.875 309.777 28.139 312.651 30.6669C315.524 33.1948 316.966 36.7703 316.966 41.3934V73.4137C316.966 75.6228 317.319 77.1373 318.023 77.9571C318.727 78.777 320.158 79.3577 322.282 79.7221L325.473 80.2573L325.45 80.2915Z" fill="black"/>
<path d="M255.564 8.73592C254.375 7.6177 252.929 7.05859 251.247 7.05859C249.565 7.05859 248.029 7.6177 246.83 8.73592C245.641 9.85414 245.047 11.319 245.047 13.1417C245.047 14.9644 245.641 16.4404 246.83 17.6034C248.018 18.7551 249.498 19.3254 251.247 19.3254C252.996 19.3254 254.364 18.7551 255.564 17.6034C256.753 16.4404 257.347 14.9644 257.347 13.1417C257.347 11.319 256.753 9.85414 255.564 8.73592Z" fill="black"/>
<path d="M347.175 84.4348C341.893 84.4348 337.255 83.2116 333.26 80.7537C329.265 78.3073 326.176 74.9806 324.007 70.7851C321.825 66.5896 320.746 61.8682 320.746 56.6095C320.746 50.8592 322.009 45.7377 324.546 41.2678C327.083 36.7865 330.482 33.2769 334.764 30.7161C339.046 28.1554 343.753 26.875 348.897 26.875C354.534 26.875 359.068 28.4755 362.49 31.6764C365.911 34.8774 368.333 39.5302 368.333 45.6348V46.9724C368.333 47.4296 368.265 48.0584 368.115 48.8358L367.897 50.3333H328.76V46.2864H357.725C357.875 45.4748 358.001 44.686 358.047 42.3424C358.104 38.7871 356.405 36.0206 354.557 34.0314C352.697 32.0422 350.022 31.0477 346.532 31.0477C341.756 31.0477 337.875 32.9339 334.913 36.695C331.951 40.4561 330.47 45.5091 330.47 51.8309C330.47 56.5866 331.343 60.8736 333.088 64.669C334.833 68.4758 337.336 71.4596 340.585 73.6202C343.834 75.7923 347.668 76.8669 352.088 76.8669C354.58 76.8669 357.013 76.4439 359.367 75.5865C361.721 74.7291 364.223 73.3115 366.864 71.3224L368.999 73.3458C365.578 77.2556 362.111 80.0793 358.621 81.8169C355.119 83.5546 351.308 84.4234 347.163 84.4234L347.175 84.4348Z" fill="black"/>
<path d="M79.4358 76.7361H78.5245C75.2666 79.8532 72.2137 81.9201 69.3773 82.9256C66.5295 83.9311 63.6361 84.4338 60.6858 84.4338C57.2798 84.4338 54.6029 83.8976 52.6664 82.8139C50.7299 81.7413 49.3743 80.356 48.5769 78.6913C47.7795 77.0155 47.3809 75.3284 47.3809 73.6191C47.3809 71.0942 48.3036 68.5469 50.1603 65.9773C52.0171 63.4076 55.0813 60.8268 59.3644 58.2237C63.6476 55.6206 69.4229 53.0621 76.7019 50.526L79.5497 49.5205M67.156 77.0713C69.8785 77.0713 72.134 76.6468 73.9224 75.7865C75.6994 74.9374 77.317 74.0213 78.7523 73.0605L79.4358 53.3302L78.5245 53.6654C73.0681 55.6764 68.8989 57.6427 66.0169 59.5755C63.1349 61.5084 61.1871 63.3629 60.1618 65.1505C59.1366 66.9381 58.624 68.5692 58.624 70.0551C58.624 74.7363 61.4604 77.0825 67.1446 77.0825L67.156 77.0713Z" fill="black"/>
<path d="M118.251 80.2698V83.4497H94.3096C93.3008 83.4497 92.5611 83.4497 91.9782 83.4497C90.6444 83.4497 90.1288 83.4497 89.1649 83.4723C87.8422 83.5062 86.867 83.4836 86.1721 83.4836C84.2778 83.4836 82.8543 83.0649 81.9128 82.2162C80.9601 81.3675 80.2988 80.3717 79.9177 79.24C79.5254 78.1084 79.2676 77.1918 79.1219 76.4789L78.5502 41.2967C78.6175 38.6827 77.8105 36.51 76.1292 34.7673C74.4479 33.0246 72.1052 32.1645 69.0901 32.1645C66.7027 32.1645 64.6066 32.9793 62.7796 34.6089C60.9526 36.2384 59.6637 38.7845 58.8903 42.2473C58.7445 42.9489 58.0384 43.6053 56.7382 44.205C55.438 44.8048 53.7454 45.1103 51.6382 45.1103C50.4501 45.1103 49.5422 44.9632 48.9033 44.6916C48.2756 44.4087 48.0963 43.775 48.3765 42.7792C49.4974 40.018 51.358 37.5171 53.9472 35.2426C56.5364 32.9793 59.4843 31.1574 62.7796 29.7768C66.075 28.3963 69.3255 27.706 72.5536 27.706C77.1043 27.706 80.8368 28.8036 83.7511 30.999C86.6541 33.1943 88.044 36.261 87.8983 40.233L87.8534 71.7034C87.7861 74.4646 88.4923 76.626 89.6804 77.7463C90.6331 78.6516 91.4514 79.4437 94.6235 79.4437C96.7531 79.4437 98.5017 78.5837 99.3311 77.52C99.9924 76.6826 100.385 74.5664 100.385 72.3711V21.2132C100.385 18.9499 99.8915 17.343 98.9163 16.3925C97.93 15.4306 95.6995 14.7403 92.1911 14.3216V11.6623L108.376 7H109.845V73.4574C109.845 75.6528 110.192 77.1579 110.898 77.9726C111.593 78.7874 113.006 79.3645 115.102 79.7266L118.263 80.2585L118.251 80.2698Z" fill="black"/>
</svg>
